<svg width="100%" height="100%" style="overflow:visible;" preserveAspectRatio="none" viewBox="0 0 72 40.17" fill="none" xmlns="http://www.w3.org/2000/svg">
<path d="M69.6701 0.415466H54.0376C53.415 0.415466 52.9102 0.913159 52.9102 1.5272V2.71298C52.9102 3.40773 52.337 3.97295 51.6324 3.97295C50.9279 3.97295 50.3547 3.40773 50.3547 2.71298V1.5272C50.3547 0.913298 49.85 0.415466 49.2273 0.415466H2.32988C1.04513 0.415466 0 1.44608 0 2.71298V38.287C0 39.5539 1.04513 40.5845 2.32988 40.5845H49.2276C49.8502 40.5845 50.355 40.0869 50.355 39.4728V38.287C50.355 37.5923 50.9282 37.0271 51.6327 37.0271C52.3373 37.0271 52.9104 37.5923 52.9104 38.287V39.4728C52.9104 40.0867 53.4151 40.5845 54.0378 40.5845H69.6704C70.9552 40.5845 72.0003 39.5539 72.0003 38.287V2.71298C72 1.44608 70.9549 0.415466 69.6701 0.415466ZM69.7454 38.287C69.7454 38.3279 69.7118 38.3611 69.6703 38.3611H55.1649V38.287C55.1649 36.755 54.1564 35.4517 52.76 34.9866V33.5438C52.76 32.9299 52.2553 32.432 51.6326 32.432C51.01 32.432 50.5052 32.9297 50.5052 33.5438V34.9866C49.1088 35.4517 48.1002 36.755 48.1002 38.287V38.3611H2.32988C2.28839 38.3611 2.25478 38.3279 2.25478 38.287V2.71298C2.25478 2.67207 2.28839 2.63893 2.32988 2.63893H48.1002V2.71298C48.1002 4.24503 49.1088 5.54827 50.5052 6.01337V7.45625C50.5052 8.07015 51.0099 8.56799 51.6326 8.56799C52.2551 8.56799 52.76 8.07029 52.76 7.45625V6.01337C54.1564 5.54827 55.1649 4.24503 55.1649 2.71298V2.63893H69.6701C69.7116 2.63893 69.7452 2.67207 69.7452 2.71298V38.287H69.7454Z" fill="black"/>
</svg>
